<svg
  width="22"
  height="22"
  viewBox="0 0 22 22"
  fill="none"
  xmlns="http://www.w3.org/2000/svg"
>
  <path
    d="M4.70897 0.0725384C2.51798 0.464273 0.755173 2.08588 0.199456 4.21764C-0.000967071 4.98745 -0.0146323 5.4384 0.00814305 11.4101C0.0218082 16.8944 0.0263633 17.0219 0.117465 17.4455C0.623076 19.7276 2.24468 21.3538 4.54954 21.8913C4.85017 21.9596 5.2328 21.9733 7.69709 21.9869C10.2479 22.0052 10.5121 22.0006 10.5804 21.9323C10.6488 21.8639 10.6533 20.9848 10.6533 11.0183C10.6533 3.63004 10.6397 0.149975 10.6078 0.0862045C10.5622 0.00421333 10.4848 -0.000343323 7.81552 0.00421333C5.64731 0.00876808 4.99593 0.0224323 4.70897 0.0725384ZM8.8313 11.0047V20.2332L6.97739 20.2105C5.26924 20.1922 5.08704 20.1831 4.74541 20.0966C3.27868 19.7185 2.19002 18.5889 1.88483 17.1176C1.78462 16.6575 1.78462 5.32452 1.88027 4.87357C2.15358 3.5936 3.04181 2.53227 4.23979 2.05399C4.84106 1.81257 5.11892 1.78524 7.06849 1.78069L8.8313 1.77613V11.0047Z"
    fill="currentColor"
  />
  <path
    d="M5.10071 4.55952C4.81374 4.61418 4.37646 4.83282 4.14415 5.0378C3.66587 5.45231 3.42901 6.03991 3.46545 6.73228C3.48367 7.09213 3.50644 7.18779 3.6522 7.47931C3.86629 7.92115 4.1897 8.24456 4.63154 8.46321C4.93673 8.61352 5.01417 8.63174 5.41046 8.64541C5.77031 8.65907 5.89785 8.64541 6.13927 8.56342C7.12771 8.2309 7.72443 7.26978 7.55589 6.28589C7.36002 5.11523 6.24859 4.33176 5.10071 4.55952Z"
    fill="currentColor"
  />
  <path
    d="M12.8716 0.0318851C12.8534 0.0455513 12.8398 4.98324 12.8398 11.005C12.8398 20.9396 12.8443 21.9463 12.9126 21.9736C13.0356 22.0192 16.5703 22.0009 17.0076 21.9554C18.857 21.7459 20.4877 20.6208 21.3759 18.9491C21.4898 18.735 21.6401 18.3751 21.7176 18.1519C22.0045 17.2956 21.9954 17.5233 21.9954 10.9777C21.9954 5.75304 21.9863 4.97413 21.9225 4.64161C21.4716 2.26842 19.6632 0.478283 17.2855 0.068327C16.9666 0.0136662 16.4747 0 14.8895 0C13.7963 0 12.8853 0.0136662 12.8716 0.0318851ZM17.7364 9.95281C18.447 10.1396 19.0301 10.6816 19.2669 11.374C19.4173 11.8022 19.4127 12.4308 19.2624 12.8225C18.9845 13.5422 18.4379 14.0478 17.7364 14.2346C16.5977 14.5306 15.386 13.8428 15.0535 12.7132C14.9533 12.367 14.9579 11.7839 15.0717 11.4286C15.4134 10.3127 16.5977 9.65673 17.7364 9.95281Z"
    fill="currentColor"
  />
</svg>
