<svg
  width="13"
  height="10"
  viewBox="0 0 13 10"
  fill="none"
  xmlns="http://www.w3.org/2000/svg"
>
  <path
    d="M12.0005 5.20706e-05H10.4988V0.498212H10.0007V0.999427H9.49895V1.49759H9.00079V1.99931H8.49957V2.49747H8.00141V2.99919H7.49918V3.49684H7.00153V3.99907H6.49981V4.5008H5.99809V4.99845H5.49993V5.50017H4.9982V5.99833H4.50055V6.50005H3.99883V5.99833H3.50067V5.50017H2.99895V4.99845H2.50129V4.5008H1.99906V3.99907H0.501465V6.50001H0.999625V6.99817H1.50135V7.49939H1.999V7.99755H2.50123V8.49927H2.99888V8.99743H3.5006V9.49915H4.9982V8.99743H5.49993V8.49927H5.99809V7.99755H6.49981V7.49939H7.00153V6.99817H7.49918V6.50001H8.00141V5.99829H8.49957V5.50013H9.00079V4.99841H9.49895V4.50076H10.0007V3.99903H10.4988V3.49681H11.0006V2.99915H11.4982V2.49743H12.0004V1.99927H12.4981V0L12.0005 5.20706e-05Z"
    fill="currentColor"
  />
</svg>
