<svg xmlns="http://www.w3.org/2000/svg" width="0" height="0">
  <defs>
    <symbol id="android" preserveAspectRatio="xMidYMid" viewBox="0 0 256 150">
      <path
        fill="currentColor"
        d="M255.285 143.47c-.084-.524-.164-1.042-.251-1.56a128.119 128.119 0 0 0-12.794-38.288 128.778 128.778 0 0 0-23.45-31.86 129.166 129.166 0 0 0-22.713-18.005c.049-.08.09-.168.14-.25 2.582-4.461 5.172-8.917 7.755-13.38l7.576-13.068c1.818-3.126 3.632-6.26 5.438-9.386a11.776 11.776 0 0 0 .662-10.484 11.668 11.668 0 0 0-4.823-5.536 11.85 11.85 0 0 0-5.004-1.61 11.963 11.963 0 0 0-2.218.018 11.738 11.738 0 0 0-8.968 5.798c-1.814 3.127-3.628 6.26-5.438 9.386l-7.576 13.069c-2.583 4.462-5.173 8.918-7.755 13.38-.282.487-.567.973-.848 1.467-.392-.157-.78-.313-1.172-.462-14.24-5.43-29.688-8.4-45.836-8.4-.442 0-.879 0-1.324.006-14.357.143-28.152 2.64-41.022 7.12a119.4 119.4 0 0 0-4.42 1.642c-.262-.455-.532-.911-.79-1.367-2.583-4.462-5.173-8.918-7.755-13.38l-7.576-13.07c-1.818-3.126-3.632-6.259-5.439-9.386A11.736 11.736 0 0 0 48.5.048a11.71 11.71 0 0 0-5.01 1.612 11.716 11.716 0 0 0-4.077 4.063c-.281.474-.532.967-.742 1.473a11.808 11.808 0 0 0-.365 8.188c.259.786.594 1.554 1.023 2.296a3973 3973 0 0 1 5.439 9.386c2.53 4.357 5.054 8.713 7.58 13.069 2.582 4.462 5.168 8.918 7.75 13.38.02.038.046.075.065.112A129.184 129.184 0 0 0 45.32 64.38a129.693 129.693 0 0 0-22.2 24.015 127.74 127.74 0 0 0-9.34 15.24 128.238 128.238 0 0 0-10.843 28.764 130.74 130.74 0 0 0-1.951 9.524c-.087.518-.167 1.042-.247 1.56A125 125 0 0 0 0 149.118h256c-.205-1.891-.449-3.77-.734-5.636z"
      />
      <path
        fill="#202124"
        d="M194.59 113.712c5.122-3.41 5.867-11.3 1.661-17.62-4.203-6.323-11.763-8.682-16.883-5.273-5.122 3.41-5.868 11.3-1.662 17.621 4.203 6.322 11.764 8.682 16.883 5.272Zm-116.072-5.25c4.206-6.321 3.46-14.21-1.662-17.62-5.123-3.41-12.68-1.05-16.886 5.27-4.203 6.323-3.458 14.212 1.662 17.622 5.122 3.41 12.683 1.05 16.886-5.272"
      />
    </symbol>
    <symbol id="gemini" fill="none" viewBox="0 0 56 21">
      <path
        fill="currentColor"
        fill-rule="evenodd"
        d="M37.829 6.66029c.2207.50332.3311 1.04111.3311 1.61337 0-.57226.1068-1.11005.3206-1.61337.2205-.50331.517-.94112.8893-1.31343.3724-.37232.8101-.66534 1.3135-.87908.5033-.22063 1.0412-.33094 1.6133-.33094-.5721 0-1.11-.10687-1.6133-.32062-.5034-.22062-.9411-.5171-1.3135-.8894-.3723-.37233-.6688-.81014-.8893-1.31346-.2138-.50331-.3206-1.0411-.3206-1.61336 0 .57226-.1104 1.11005-.3311 1.61336-.2136.50332-.5067.94113-.879 1.31346-.3722.3723-.8101.66878-1.3134.8894q-.75495.32062-1.6134.32062.85845 0 1.6134.33094c.5033.21374.9412.50676 1.3134.87908.3723.37231.6654.81012.879 1.31343M4.22577 19.8967c.84392.3475 1.74368.5212 2.69928.5212q1.45205 0 2.64344-.4653c.79431-.3103 1.48301-.7509 2.06631-1.3217.5833-.5709 1.0363-1.2473 1.359-2.0291.3227-.7943.484-1.6631.484-2.6063v-.0186c0-.1737-.0124-.3351-.0372-.484-.0124-.1489-.0311-.3041-.0559-.4654H6.9623v1.5451h4.8401c-.0497.7447-.2234 1.39-.5213 1.9361-.2854.5337-.6515.9742-1.0983 1.3217-.43436.3474-.93698.608-1.50786.7819-.55848.1612-1.14177.242-1.74989.242-.67016 0-1.32172-.1242-1.95465-.3724s-1.19761-.608-1.69403-1.0797c-.484-.4716-.86874-1.0363-1.15418-1.694-.28544-.6702-.42816-1.421-.42816-2.2525s.13651-1.5761.40955-2.2339c.28544-.6702.67017-1.23485 1.15418-1.69404q.726-.7074 1.67541-1.07971.96802-.37232 1.99188-.37232.76326 0 1.45204.20478.68877.18615 1.26586.53985.59574.3537 1.02385.85633l1.1542-1.19141q-.83775-.9494-2.14081-1.47065Q8.3957 6.4934 6.92505 6.4934q-1.41479 0-2.68067.52123-1.24724.52124-2.21526 1.47065-.94941.94939-1.48926 2.21532C.17996 11.5445 0 12.4628 0 13.4557c0 .9928.17995 1.9112.53986 2.7551.3599.8439.85632 1.5823 1.48926 2.2153.63293.6329 1.36516 1.1232 2.19665 1.4706m12.58763-.1303c.7197.4344 1.5389.6515 2.4573.6515 1.0423 0 1.9173-.2357 2.6248-.7074.7074-.4715 1.2473-1.0672 1.6195-1.787l-1.4147-.6702c-.2607.4716-.6207.8688-1.0797 1.1914-.4469.3227-1.0053.484-1.6756.484-.5212 0-1.0237-.1303-1.5078-.3909-.4839-.2606-.8811-.6516-1.1913-1.1727-.2681-.4505-.4204-1.0028-.4568-1.6569h7.4749c.0124-.0621.0186-.1427.0186-.242.0124-.0993.0186-.1924.0186-.2792 0-.9433-.1862-1.781-.5584-2.5132-.36-.7322-.8813-1.3031-1.5638-1.7126-.6827-.422-1.4954-.633-2.4387-.633-.9308 0-1.7436.2358-2.4387.7074-.6949.4592-1.2348 1.0735-1.6195 1.843-.3723.7694-.5585 1.6072-.5585 2.5131 0 .968.1986 1.8305.5957 2.5877.4096.757.9743 1.3527 1.6941 1.787m-.5295-5.4172c.0585-.2763.1421-.5369.2502-.7818.2359-.5337.5771-.9556 1.0239-1.2659.4592-.3227.9929-.484 1.6009-.484.5088 0 .937.0869 1.2845.2606.3476.1614.6329.3723.8564.6329.2233.2607.3847.5399.4839.8378.0994.2854.1551.5522.1676.8004zm8.8409-3.7231v9.494h1.6754v-5.2869c0-.5212.1055-1.0114.3166-1.4706.211-.4592.5026-.8253.8749-1.0983.3723-.2855.7943-.4282 1.2658-.4282.6578 0 1.1666.1924 1.5266.5771.3723.3723.5584 1.0115.5584 1.9174v5.7895h1.6568V14.796q0-.7818.3165-1.452c.2109-.4592.5025-.8253.875-1.0983.3723-.2731.7941-.4096 1.2658-.4096.6702 0 1.1852.1862 1.5451.5585.3723.3723.5585 1.0114.5585 1.9174v5.8081h1.6568v-6.0873c0-1.1046-.2731-1.9981-.8191-2.6807q-.80055-1.0239-2.5131-1.0239c-.757 0-1.4087.1738-1.9546.5213-.5462.3475-.9805.788-1.3032 1.3217-.2234-.5461-.5896-.9866-1.0984-1.3217-.4963-.3475-1.0982-.5213-1.8056-.5213-.3972 0-.7943.0807-1.1915.242-.3847.149-.7259.3537-1.0239.6144-.2978.2482-.5335.5274-.7074.8377h-.0745v-1.3962zm15.6 0v9.494h1.6568v-9.494zm-.0186-2.01051c.2358.22338.5151.33508.8378.33508.335 0 .6143-.1117.8376-.33508.2235-.23581.3351-.51504.3351-.83771 0-.33508-.1116-.61432-.3351-.8377-.2233-.23581-.5026-.35371-.8376-.35371-.3227 0-.602.1179-.8378.35371q-.3351.33507-.3351.8377 0 .484.3351.83771m3.2314 2.01051v9.494h1.6754v-5.2869q0-.7632.3165-1.4334c.2235-.4592.5274-.8315.9122-1.1169.3847-.2979.8377-.4468 1.359-.4468.6949 0 1.2535.1924 1.6754.5771.4219.3723.6329 1.0115.6329 1.9174v5.7895h1.6754v-6.0873c0-1.117-.2978-2.0105-.8935-2.6807-.5958-.6826-1.4707-1.0239-2.6249-1.0239-.6825 0-1.3031.1676-1.8615.5027-.5584.335-.9619.7322-1.2101 1.1914h-.0745v-1.3962zm9.6531 0v9.494h1.6569v-9.494zm-.0185-2.01051c.2357.22338.5151.33508.8377.33508.335 0 .6144-.1117.8377-.33508q.3351-.35371.3351-.83771 0-.50263-.3351-.8377c-.2233-.23581-.5027-.35371-.8377-.35371-.3226 0-.602.1179-.8377.35371-.2233.22338-.3351.50262-.3351.8377 0 .32267.1118.6019.3351.83771"
        clip-rule="evenodd"
      />
    </symbol>
    <symbol xml:space="preserve" id="ios" viewBox="0.276 0.525 124.326 79.116">
      <path
        fill="currentColor"
        d="M4.621 6.965c0 1.368-.833 2.38-2.262 2.38-1.19 0-2.083-1.012-2.083-2.38 0-1.31.952-2.381 2.202-2.381 1.31 0 2.143 1.071 2.143 2.381M1.327 78.5V23.78H3.57V78.5zM78.174 39.512c0 27.588-15.315 40.129-32.079 40.129-17.125 0-30.993-13.565-30.993-38.988C15.102 14.549 29.453.526 47.301.526 64.787.524 78.174 14.318 78.174 39.512m-60.799.57C17.375 61 27.513 77.25 46.201 77.25c18.818 0 29.611-16.75 29.611-37.406 0-19.155-8.648-36.636-28.382-36.636S17.375 19.667 17.375 40.082M86.406 72.571c3.763 2.508 10.258 4.93 15.844 4.93 10.602 0 20.031-7.417 20.031-18.334 0-10.131-6.281-15.417-16.945-19.958-9.544-4.064-18.125-8.475-18.125-19.305 0-11.285 8.891-19.267 20.975-19.267 6.498 0 11.4 1.824 13.68 3.42l-.906 1.968c-1.938-1.367-7.176-3.109-12.874-3.109-12.771 0-18.334 9.65-18.334 16.754 0 9.812 7.606 13.093 17.41 17.767 11.399 5.585 17.44 10.51 17.44 21.227 0 11.514-8.207 20.86-22.799 20.86-6.043 0-12.996-2.051-16.416-4.674z"
      />
    </symbol>
    <symbol xml:space="preserve" id="macos" viewBox="0 0 814 1000">
      <path
        fill="currentColor"
        d="M788.1 340.9c-5.8 4.5-108.2 62.2-108.2 190.5 0 148.4 130.3 200.9 134.2 202.2-.6 3.2-20.7 71.9-68.7 141.9-42.8 61.6-87.5 123.1-155.5 123.1s-85.5-39.5-164-39.5c-76.5 0-103.7 40.8-165.9 40.8s-105.6-57-155.5-127C46.7 790.7 0 663 0 541.8c0-194.4 126.4-297.5 250.8-297.5 66.1 0 121.2 43.4 162.7 43.4 39.5 0 101.1-46 176.3-46 28.5 0 130.9 2.6 198.3 99.2m-234-181.5c31.1-36.9 53.1-88.1 53.1-139.3 0-7.1-.6-14.3-1.9-20.1-50.6 1.9-110.8 33.7-147.1 75.8-28.5 32.4-55.1 83.6-55.1 135.5 0 7.8 1.3 15.6 1.9 18.1 3.2.6 8.4 1.3 13.6 1.3 45.4 0 102.5-30.4 135.5-71.3"
      />
    </symbol>
    <symbol xml:space="preserve" id="playstation" viewBox="0 0 122.88 95.18">
      <path
        fill="currentColor"
        d="M2.49 69.39c-4.61 3.07-3.07 8.9 6.75 11.67 10.13 3.38 21.18 4.3 31.93 2.46.61 0 1.23-.31 1.54-.31V72.76l-10.44 3.38c-3.99 1.23-7.98 1.54-11.97.61-3.07-.92-2.46-2.76 1.23-4.3l21.18-7.37V53.73L13.23 63.86c-3.68 1.23-7.37 3.07-10.74 5.53m71.22-46.06v29.78c12.59 6.14 22.41 0 22.41-15.96 0-16.27-5.83-23.64-22.72-29.47C64.5 4.6 55.29 1.84 46.08 0v88.73l21.49 6.45V20.57c0-3.38 0-5.83 2.46-4.91 3.38.92 3.68 4.3 3.68 7.67m39.92 38.99c-8.9-3.07-18.42-4.3-27.63-3.38-4.91.31-9.52 1.54-13.82 3.07l-.92.31V74.3l19.96-7.37c3.99-1.23 7.98-1.54 11.97-.61 3.07.92 2.46 2.76-1.23 4.3l-30.7 11.36v11.67l42.37-15.66c3.07-1.23 5.83-2.76 8.29-5.22 2.15-3.08 1.23-7.38-8.29-10.45"
      />
    </symbol>
    <symbol id="v" viewBox="0 0 24 24">
      <path
        fill="currentColor"
        d="M21 7 9 19l-5.5-5.5 1.41-1.41L9 16.17 19.59 5.59z"
      />
    </symbol>
    <symbol id="windows" viewBox="0 0 88 88">
      <path
        fill="currentColor"
        d="m0 12.402 35.687-4.86.016 34.423-35.67.203zm35.67 33.529.028 34.453L.028 75.48.026 45.7zm4.326-39.025L87.314 0v41.527l-47.318.376zm47.329 39.349-.011 41.34-47.318-6.678-.066-34.739z"
      />
    </symbol>
    <symbol id="x" fill="none" viewBox="0 0 24 24">
      <path
        stroke="currentColor"
        stroke-linecap="round"
        stroke-linejoin="round"
        stroke-width="2"
        d="M18 6 6 18M6 6l12 12"
      />
    </symbol>
    <symbol id="xbox" viewBox="0 0 88 88">
      <path
        fill="currentColor"
        d="M39.73 86.91c-6.628-.635-13.338-3.015-19.102-6.776-4.83-3.15-5.92-4.447-5.92-7.032 0-5.193 5.71-14.29 15.48-24.658 5.547-5.89 13.275-12.79 14.11-12.604 1.626.363 14.616 13.034 19.48 19 7.69 9.43 11.224 17.154 9.428 20.597-1.365 2.617-9.837 7.733-16.06 9.698-5.13 1.62-11.867 2.306-17.416 1.775M8.184 67.703c-4.014-6.158-6.042-12.22-7.02-20.988-.324-2.895-.21-4.55.733-10.494 1.173-7.4 5.39-15.97 10.46-21.24 2.158-2.24 2.35-2.3 4.982-1.41 3.19 1.08 6.6 3.436 11.89 8.22l3.09 2.794-1.69 2.07c-7.828 9.61-16.09 23.24-19.2 31.67-1.69 4.58-2.37 9.18-1.64 11.095.49 1.294.04.812-1.61-1.714zm70.453 1.047c.397-1.936-.105-5.49-1.28-9.076-2.545-7.765-11.054-22.21-18.867-32.032l-2.46-3.092 2.662-2.443c3.474-3.19 5.886-5.1 8.49-6.723 2.053-1.28 4.988-2.413 6.25-2.413.777 0 3.516 2.85 5.726 5.95 3.424 4.8 5.942 10.63 7.218 16.69.825 3.92.894 12.3.133 16.21-.63 3.208-1.95 7.366-3.23 10.187-.97 2.113-3.36 6.218-4.41 7.554-.54.687-.54.686-.24-.796zM40.44 11.505C36.834 9.675 31.272 7.71 28.2 7.18c-1.076-.185-2.913-.29-4.08-.23-2.536.128-2.423-.004 1.643-1.925 3.38-1.597 6.2-2.536 10.03-3.34C40.098.78 48.193.77 52.43 1.663c4.575.965 9.964 2.97 13 4.84l.904.554-2.07-.104C60.148 6.745 54.15 8.408 47.71 11.54c-1.942.946-3.63 1.7-3.754 1.68-.123-.024-1.706-.795-3.52-1.715z"
      />
    </symbol>
  </defs>
</svg>
