<svg
  width="56"
  height="21"
  viewBox="0 0 56 21"
  fill="none"
  xmlns="http://www.w3.org/2000/svg"
>
  <path
    fill-rule="evenodd"
    clip-rule="evenodd"
    d="M37.829 6.66029C38.0497 7.16361 38.1601 7.7014 38.1601 8.27366C38.1601 7.7014 38.2669 7.16361 38.4807 6.66029C38.7012 6.15698 38.9977 5.71917 39.37 5.34686C39.7424 4.97454 40.1801 4.68152 40.6835 4.46778C41.1868 4.24715 41.7247 4.13684 42.2968 4.13684C41.7247 4.13684 41.1868 4.02997 40.6835 3.81622C40.1801 3.5956 39.7424 3.29912 39.37 2.92682C38.9977 2.55449 38.7012 2.11668 38.4807 1.61336C38.2669 1.11005 38.1601 0.572261 38.1601 0C38.1601 0.572261 38.0497 1.11005 37.829 1.61336C37.6154 2.11668 37.3223 2.55449 36.95 2.92682C36.5778 3.29912 36.1399 3.5956 35.6366 3.81622C35.1333 4.02997 34.5955 4.13684 34.0232 4.13684C34.5955 4.13684 35.1333 4.24715 35.6366 4.46778C36.1399 4.68152 36.5778 4.97454 36.95 5.34686C37.3223 5.71917 37.6154 6.15698 37.829 6.66029ZM4.22577 19.8967C5.06969 20.2442 5.96945 20.4179 6.92505 20.4179C7.89308 20.4179 8.77423 20.2628 9.56849 19.9526C10.3628 19.6423 11.0515 19.2017 11.6348 18.6309C12.2181 18.06 12.6711 17.3836 12.9938 16.6018C13.3165 15.8075 13.4778 14.9387 13.4778 13.9955V13.9769C13.4778 13.8032 13.4654 13.6418 13.4406 13.4929C13.4282 13.344 13.4095 13.1888 13.3847 13.0275H6.9623V14.5726H11.8024C11.7527 15.3173 11.579 15.9626 11.2811 16.5087C10.9957 17.0424 10.6296 17.4829 10.1828 17.8304C9.74844 18.1778 9.24582 18.4384 8.67494 18.6123C8.11646 18.7735 7.53317 18.8543 6.92505 18.8543C6.25489 18.8543 5.60333 18.7301 4.9704 18.4819C4.33747 18.2337 3.77279 17.8739 3.27637 17.4022C2.79237 16.9306 2.40763 16.3659 2.12219 15.7082C1.83675 15.038 1.69403 14.2872 1.69403 13.4557C1.69403 12.6242 1.83054 11.8796 2.10358 11.2218C2.38902 10.5516 2.77375 9.98695 3.25776 9.52776C3.74176 9.05616 4.30024 8.69625 4.93317 8.44805C5.57851 8.19984 6.24248 8.07573 6.92505 8.07573C7.43389 8.07573 7.9179 8.14399 8.37709 8.28051C8.83627 8.4046 9.25823 8.58457 9.64295 8.82036C10.0401 9.05616 10.3814 9.34161 10.6668 9.67669L11.821 8.48528C11.2625 7.85235 10.5489 7.36212 9.68019 7.01463C8.82386 6.66714 7.90549 6.4934 6.92505 6.4934C5.98186 6.4934 5.0883 6.66714 4.24438 7.01463C3.41289 7.36212 2.67446 7.85235 2.02912 8.48528C1.39618 9.11821 0.899761 9.85664 0.539856 10.7006C0.179952 11.5445 0 12.4628 0 13.4557C0 14.4485 0.179952 15.3669 0.539856 16.2108C0.899761 17.0547 1.39618 17.7931 2.02912 18.4261C2.66205 19.059 3.39428 19.5493 4.22577 19.8967ZM16.8134 19.7664C17.5331 20.2008 18.3523 20.4179 19.2707 20.4179C20.313 20.4179 21.188 20.1822 21.8955 19.7105C22.6029 19.239 23.1428 18.6433 23.515 17.9235L22.1003 17.2533C21.8396 17.7249 21.4796 18.1221 21.0206 18.4447C20.5737 18.7674 20.0153 18.9287 19.345 18.9287C18.8238 18.9287 18.3213 18.7984 17.8372 18.5378C17.3533 18.2772 16.9561 17.8862 16.6459 17.3651C16.3778 16.9146 16.2255 16.3623 16.1891 15.7082H23.664C23.6764 15.6461 23.6826 15.5655 23.6826 15.4662C23.695 15.3669 23.7012 15.2738 23.7012 15.187C23.7012 14.2437 23.515 13.406 23.1428 12.6738C22.7828 11.9416 22.2615 11.3707 21.579 10.9612C20.8963 10.5392 20.0836 10.3282 19.1403 10.3282C18.2095 10.3282 17.3967 10.564 16.7016 11.0356C16.0067 11.4948 15.4668 12.1091 15.0821 12.8786C14.7098 13.648 14.5236 14.4858 14.5236 15.3917C14.5236 16.3597 14.7222 17.2222 15.1193 17.9794C15.5289 18.7364 16.0936 19.3321 16.8134 19.7664ZM16.2839 14.3492C16.3424 14.0729 16.426 13.8123 16.5341 13.5674C16.77 13.0337 17.1112 12.6118 17.558 12.3015C18.0172 11.9788 18.5509 11.8175 19.1589 11.8175C19.6677 11.8175 20.0959 11.9044 20.4434 12.0781C20.791 12.2395 21.0763 12.4504 21.2998 12.711C21.5231 12.9717 21.6845 13.2509 21.7837 13.5488C21.8831 13.8342 21.9388 14.101 21.9513 14.3492H16.2839ZM25.1248 10.6261V20.1201H26.8002V14.8332C26.8002 14.312 26.9057 13.8218 27.1168 13.3626C27.3278 12.9034 27.6194 12.5373 27.9917 12.2643C28.364 11.9788 28.786 11.8361 29.2575 11.8361C29.9153 11.8361 30.4241 12.0285 30.7841 12.4132C31.1564 12.7855 31.3425 13.4247 31.3425 14.3306V20.1201H32.9993V14.796C32.9993 14.2748 33.1048 13.7908 33.3158 13.344C33.5267 12.8848 33.8183 12.5187 34.1908 12.2457C34.5631 11.9726 34.9849 11.8361 35.4566 11.8361C36.1268 11.8361 36.6418 12.0223 37.0017 12.3946C37.374 12.7669 37.5602 13.406 37.5602 14.312V20.1201H39.217V14.0328C39.217 12.9282 38.9439 12.0347 38.3979 11.3521C37.8642 10.6695 37.0265 10.3282 35.8848 10.3282C35.1278 10.3282 34.4761 10.502 33.9302 10.8495C33.384 11.197 32.9497 11.6375 32.627 12.1712C32.4036 11.6251 32.0374 11.1846 31.5286 10.8495C31.0323 10.502 30.4304 10.3282 29.723 10.3282C29.3258 10.3282 28.9287 10.4089 28.5315 10.5702C28.1468 10.7192 27.8056 10.9239 27.5076 11.1846C27.2098 11.4328 26.9741 11.712 26.8002 12.0223H26.7257V10.6261H25.1248ZM40.7248 10.6261V20.1201H42.3816V10.6261H40.7248ZM40.7062 8.61559C40.942 8.83897 41.2213 8.95067 41.544 8.95067C41.879 8.95067 42.1583 8.83897 42.3816 8.61559C42.6051 8.37978 42.7167 8.10055 42.7167 7.77788C42.7167 7.4428 42.6051 7.16356 42.3816 6.94018C42.1583 6.70437 41.879 6.58647 41.544 6.58647C41.2213 6.58647 40.942 6.70437 40.7062 6.94018C40.4828 7.16356 40.3711 7.4428 40.3711 7.77788C40.3711 8.10055 40.4828 8.37978 40.7062 8.61559ZM43.9376 10.6261V20.1201H45.613V14.8332C45.613 14.3244 45.7185 13.8466 45.9295 13.3998C46.153 12.9406 46.4569 12.5683 46.8417 12.2829C47.2264 11.985 47.6794 11.8361 48.2007 11.8361C48.8956 11.8361 49.4542 12.0285 49.8761 12.4132C50.298 12.7855 50.509 13.4247 50.509 14.3306V20.1201H52.1844V14.0328C52.1844 12.9158 51.8866 12.0223 51.2909 11.3521C50.6951 10.6695 49.8202 10.3282 48.666 10.3282C47.9835 10.3282 47.3629 10.4958 46.8045 10.8309C46.2461 11.1659 45.8426 11.5631 45.5944 12.0223H45.5199V10.6261H43.9376ZM53.5907 10.6261V20.1201H55.2476V10.6261H53.5907ZM53.5722 8.61559C53.8079 8.83897 54.0873 8.95067 54.4099 8.95067C54.7449 8.95067 55.0243 8.83897 55.2476 8.61559C55.471 8.37978 55.5827 8.10055 55.5827 7.77788C55.5827 7.4428 55.471 7.16356 55.2476 6.94018C55.0243 6.70437 54.7449 6.58647 54.4099 6.58647C54.0873 6.58647 53.8079 6.70437 53.5722 6.94018C53.3489 7.16356 53.2371 7.4428 53.2371 7.77788C53.2371 8.10055 53.3489 8.37978 53.5722 8.61559Z"
    fill="white"
  />
</svg>
